<svg xmlns="http://www.w3.org/2000/svg" viewBox="0 0 256 256" shape-rendering="crispEdges"><title>MultiAgency</title><style>path{fill:#141413}@media (prefers-color-scheme:dark){path{fill:#ECEAE4}}</style><path fill-rule="evenodd" d="M0 0L80 0L80 112L64 112L64 16L16 16L16 64L56 64L56 80L0 80ZM120 0L192 0L192 112L176 112L176 16L136 16L136 48L120 48ZM88 64L168 64L168 80L88 80ZM200 64L256 64L256 136L144 136L144 120L240 120L240 80L200 80ZM120 88L136 88L136 168L120 168ZM0 120L112 120L112 136L16 136L16 176L56 176L56 192L0 192ZM64 144L80 144L80 240L120 240L120 200L136 200L136 256L64 256ZM176 144L192 144L192 240L240 240L240 192L208 192L208 176L256 176L256 256L176 256ZM88 176L168 176L168 192L88 192Z"/></svg>
